<svg width="720" height="152" viewBox="0 0 720 152" fill="none" xmlns="http://www.w3.org/2000/svg">
<g filter="url(#filter0_d)">
<rect x="116" y="6" width="566.25" height="131.25" rx="20" fill="white"/>
<rect x="118.5" y="8.5" width="561.25" height="126.25" rx="17.5" stroke="#F4F4F4" stroke-width="5"/>
<rect x="118.5" y="8.5" width="561.25" height="126.25" rx="17.5" stroke="url(#paint0_linear)" stroke-width="5"/>
</g>
<path d="M216.897 38V94H206.497V70H177.537V94H167.137V38H177.537V61.12H206.497V38H216.897ZM250.143 94.56C245.823 94.56 241.929 93.6267 238.463 91.76C234.996 89.8933 232.276 87.3067 230.303 84C228.383 80.64 227.423 76.8533 227.423 72.64C227.423 68.4267 228.383 64.6667 230.303 61.36C232.276 58.0533 234.996 55.4667 238.463 53.6C241.929 51.7333 245.823 50.8 250.143 50.8C254.516 50.8 258.436 51.7333 261.903 53.6C265.369 55.4667 268.063 58.0533 269.983 61.36C271.956 64.6667 272.943 68.4267 272.943 72.64C272.943 76.8533 271.956 80.64 269.983 84C268.063 87.3067 265.369 89.8933 261.903 91.76C258.436 93.6267 254.516 94.56 250.143 94.56ZM250.143 86C253.823 86 256.863 84.7733 259.263 82.32C261.663 79.8667 262.863 76.64 262.863 72.64C262.863 68.64 261.663 65.4133 259.263 62.96C256.863 60.5067 253.823 59.28 250.143 59.28C246.463 59.28 243.423 60.5067 241.023 62.96C238.676 65.4133 237.503 68.64 237.503 72.64C237.503 76.64 238.676 79.8667 241.023 82.32C243.423 84.7733 246.463 86 250.143 86ZM323.865 51.28V94H314.345V88.56C312.745 90.48 310.745 91.9733 308.345 93.04C305.945 94.0533 303.359 94.56 300.585 94.56C294.879 94.56 290.372 92.9867 287.065 89.84C283.812 86.64 282.185 81.92 282.185 75.68V51.28H292.185V74.32C292.185 78.16 293.039 81.04 294.745 82.96C296.505 84.8267 298.985 85.76 302.185 85.76C305.759 85.76 308.585 84.6667 310.665 82.48C312.799 80.24 313.865 77.04 313.865 72.88V51.28H323.865ZM350.158 94.56C346.692 94.56 343.305 94.1067 339.998 93.2C336.692 92.2933 334.052 91.1467 332.078 89.76L335.918 82.16C337.838 83.44 340.132 84.48 342.798 85.28C345.518 86.0267 348.185 86.4 350.798 86.4C356.772 86.4 359.758 84.8267 359.758 81.68C359.758 80.1867 358.985 79.1467 357.438 78.56C355.945 77.9733 353.518 77.4133 350.158 76.88C346.638 76.3467 343.758 75.7333 341.518 75.04C339.332 74.3467 337.412 73.1467 335.758 71.44C334.158 69.68 333.358 67.2533 333.358 64.16C333.358 60.1067 335.038 56.88 338.398 54.48C341.812 52.0267 346.398 50.8 352.158 50.8C355.092 50.8 358.025 51.1467 360.958 51.84C363.892 52.48 366.292 53.36 368.158 54.48L364.318 62.08C360.692 59.9467 356.612 58.88 352.078 58.88C349.145 58.88 346.905 59.3333 345.358 60.24C343.865 61.0933 343.118 62.24 343.118 63.68C343.118 65.28 343.918 66.4267 345.518 67.12C347.172 67.76 349.705 68.3733 353.118 68.96C356.532 69.4933 359.332 70.1067 361.518 70.8C363.705 71.4933 365.572 72.6667 367.118 74.32C368.718 75.9733 369.518 78.32 369.518 81.36C369.518 85.36 367.785 88.56 364.318 90.96C360.852 93.36 356.132 94.56 350.158 94.56ZM418.29 72.88C418.29 73.5733 418.237 74.56 418.13 75.84H384.61C385.197 78.9867 386.717 81.4933 389.17 83.36C391.677 85.1733 394.77 86.08 398.45 86.08C403.144 86.08 407.01 84.5333 410.05 81.44L415.41 87.6C413.49 89.8933 411.064 91.6267 408.13 92.8C405.197 93.9733 401.89 94.56 398.21 94.56C393.517 94.56 389.384 93.6267 385.81 91.76C382.237 89.8933 379.464 87.3067 377.49 84C375.57 80.64 374.61 76.8533 374.61 72.64C374.61 68.48 375.544 64.7467 377.41 61.44C379.33 58.08 381.97 55.4667 385.33 53.6C388.69 51.7333 392.477 50.8 396.69 50.8C400.85 50.8 404.557 51.7333 407.81 53.6C411.117 55.4133 413.677 58 415.49 61.36C417.357 64.6667 418.29 68.5067 418.29 72.88ZM396.69 58.8C393.49 58.8 390.77 59.76 388.53 61.68C386.344 63.5467 385.01 66.0533 384.53 69.2H408.77C408.344 66.1067 407.037 63.6 404.85 61.68C402.664 59.76 399.944 58.8 396.69 58.8ZM481.816 50.8C487.203 50.8 491.469 52.3733 494.616 55.52C497.763 58.6133 499.336 63.28 499.336 69.52V94H489.336V70.8C489.336 67.0667 488.509 64.2667 486.856 62.4C485.203 60.48 482.829 59.52 479.736 59.52C476.376 59.52 473.683 60.64 471.656 62.88C469.629 65.0667 468.616 68.2133 468.616 72.32V94H458.616V70.8C458.616 67.0667 457.789 64.2667 456.136 62.4C454.483 60.48 452.109 59.52 449.016 59.52C445.603 59.52 442.883 60.6133 440.856 62.8C438.883 64.9867 437.896 68.16 437.896 72.32V94H427.896V51.28H437.416V56.72C439.016 54.8 441.016 53.3333 443.416 52.32C445.816 51.3067 448.483 50.8 451.416 50.8C454.616 50.8 457.443 51.4133 459.896 52.64C462.403 53.8133 464.376 55.5733 465.816 57.92C467.576 55.68 469.843 53.9467 472.616 52.72C475.389 51.44 478.456 50.8 481.816 50.8ZM552.665 72.88C552.665 73.5733 552.612 74.56 552.505 75.84H518.985C519.572 78.9867 521.092 81.4933 523.545 83.36C526.052 85.1733 529.145 86.08 532.825 86.08C537.519 86.08 541.385 84.5333 544.425 81.44L549.785 87.6C547.865 89.8933 545.439 91.6267 542.505 92.8C539.572 93.9733 536.265 94.56 532.585 94.56C527.892 94.56 523.759 93.6267 520.185 91.76C516.612 89.8933 513.839 87.3067 511.865 84C509.945 80.64 508.985 76.8533 508.985 72.64C508.985 68.48 509.919 64.7467 511.785 61.44C513.705 58.08 516.345 55.4667 519.705 53.6C523.065 51.7333 526.852 50.8 531.065 50.8C535.225 50.8 538.932 51.7333 542.185 53.6C545.492 55.4133 548.052 58 549.865 61.36C551.732 64.6667 552.665 68.5067 552.665 72.88ZM531.065 58.8C527.865 58.8 525.145 59.76 522.905 61.68C520.719 63.5467 519.385 66.0533 518.905 69.2H543.145C542.719 66.1067 541.412 63.6 539.225 61.68C537.039 59.76 534.319 58.8 531.065 58.8ZM602.431 72.88C602.431 73.5733 602.378 74.56 602.271 75.84H568.751C569.338 78.9867 570.858 81.4933 573.311 83.36C575.818 85.1733 578.911 86.08 582.591 86.08C587.284 86.08 591.151 84.5333 594.191 81.44L599.551 87.6C597.631 89.8933 595.204 91.6267 592.271 92.8C589.338 93.9733 586.031 94.56 582.351 94.56C577.658 94.56 573.524 93.6267 569.951 91.76C566.378 89.8933 563.604 87.3067 561.631 84C559.711 80.64 558.751 76.8533 558.751 72.64C558.751 68.48 559.684 64.7467 561.551 61.44C563.471 58.08 566.111 55.4667 569.471 53.6C572.831 51.7333 576.618 50.8 580.831 50.8C584.991 50.8 588.698 51.7333 591.951 53.6C595.258 55.4133 597.818 58 599.631 61.36C601.498 64.6667 602.431 68.5067 602.431 72.88ZM580.831 58.8C577.631 58.8 574.911 59.76 572.671 61.68C570.484 63.5467 569.151 66.0533 568.671 69.2H592.911C592.484 66.1067 591.178 63.6 588.991 61.68C586.804 59.76 584.084 58.8 580.831 58.8ZM637.717 91.68C636.543 92.64 635.103 93.36 633.397 93.84C631.743 94.32 629.983 94.56 628.117 94.56C623.423 94.56 619.797 93.3333 617.237 90.88C614.677 88.4267 613.397 84.8533 613.397 80.16V59.6H606.357V51.6H613.397V41.84H623.397V51.6H634.837V59.6H623.397V79.92C623.397 82 623.903 83.6 624.917 84.72C625.93 85.7867 627.397 86.32 629.317 86.32C631.557 86.32 633.423 85.7333 634.917 84.56L637.717 91.68Z" fill="#5EB4CA"/>
<defs>
<filter id="filter0_d" x="106" y="0" width="586.25" height="151.25" filterUnits="userSpaceOnUse" color-interpolation-filters="sRGB">
<feFlood flood-opacity="0" result="BackgroundImageFix"/>
<feColorMatrix in="SourceAlpha" type="matrix" values="0 0 0 0 0 0 0 0 0 0 0 0 0 0 0 0 0 0 127 0"/>
<feOffset dy="4"/>
<feGaussianBlur stdDeviation="5"/>
<feColorMatrix type="matrix" values="0 0 0 0 0 0 0 0 0 0 0 0 0 0 0 0 0 0 0.05 0"/>
<feBlend mode="normal" in2="BackgroundImageFix" result="effect1_dropShadow"/>
<feBlend mode="normal" in="SourceGraphic" in2="effect1_dropShadow" result="shape"/>
</filter>
<linearGradient id="paint0_linear" x1="399.125" y1="6" x2="399.125" y2="137.25" gradientUnits="userSpaceOnUse">
<stop offset="0.942708" stop-color="#5EB4CA"/>
<stop offset="1" stop-color="white" stop-opacity="0"/>
</linearGradient>
</defs>
</svg>
